<?xml version="1.0" encoding="UTF-8" standalone="no"?>
<!DOCTYPE svg PUBLIC "-//W3C//DTD SVG 1.1//EN"
 "http://www.w3.org/Graphics/SVG/1.1/DTD/svg11.dtd">
<!-- Generated by graphviz version 2.38.0 (20140413.2041)
 -->
<!-- Title: G Pages: 1 -->
<svg width="603pt" height="808pt"
 viewBox="0.00 0.00 603.00 808.00" xmlns="http://www.w3.org/2000/svg" xmlns:xlink="http://www.w3.org/1999/xlink">
<g id="graph0" class="graph" transform="scale(1 1) rotate(0) translate(4 804)">
<title>G</title>
<polygon fill="white" stroke="none" points="-4,4 -4,-804 599,-804 599,4 -4,4"/>
<!-- haskell -->
<g id="node1" class="node"><title>haskell</title>
<ellipse fill="#333333" stroke="black" cx="134.775" cy="-625.692" rx="62.8651" ry="21.4286"/>
<text text-anchor="middle" x="134.775" y="-620.692" font-family="Times,serif" font-size="20.00" fill="#ccccff">haskell</text>
</g>
<!-- horg -->
<g id="node2" class="node"><title>horg</title>
<ellipse fill="#333333" stroke="black" cx="252.395" cy="-581.231" rx="45.011" ry="21.4286"/>
<text text-anchor="middle" x="252.395" y="-576.231" font-family="Times,serif" font-size="20.00" fill="#ccccff">horg</text>
</g>
<!-- program -->
<g id="node3" class="node"><title>program</title>
<ellipse fill="#333333" stroke="black" cx="351.97" cy="-637.155" rx="74.4932" ry="21.4286"/>
<text text-anchor="middle" x="351.97" y="-632.155" font-family="Times,serif" font-size="20.00" fill="#ccccff">program</text>
</g>
<!-- description -->
<g id="node4" class="node"><title>description</title>
<polygon fill="#ffffff" stroke="black" points="287.034,-799.518 171.034,-799.518 171.034,-763.518 287.034,-763.518 287.034,-799.518"/>
<text text-anchor="middle" x="229.034" y="-777.418" font-family="Times,serif" font-size="17.00" fill="#000000">description</text>
</g>
<!-- description&#45;&gt;haskell -->
<g id="edge1" class="edge"><title>description&#45;&gt;haskell</title>
<path fill="none" stroke="green" d="M218.037,-763.338C202.036,-736.886 172.15,-687.479 152.874,-655.614"/>
<polygon fill="green" stroke="green" points="155.67,-653.474 147.5,-646.729 149.681,-657.097 155.67,-653.474"/>
</g>
<!-- description&#45;&gt;horg -->
<g id="edge2" class="edge"><title>description&#45;&gt;horg</title>
<path fill="none" stroke="green" d="M231.148,-763.39C235.135,-729.214 243.804,-654.886 248.748,-612.497"/>
<polygon fill="green" stroke="green" points="252.238,-612.79 249.92,-602.452 245.285,-611.979 252.238,-612.79"/>
</g>
<!-- description&#45;&gt;program -->
<g id="edge3" class="edge"><title>description&#45;&gt;program</title>
<path fill="none" stroke="green" d="M244.604,-763.234C265.511,-738.684 302.875,-694.807 327.544,-665.838"/>
<polygon fill="green" stroke="green" points="330.323,-667.974 334.142,-658.091 324.993,-663.435 330.323,-667.974"/>
</g>
<!-- basic usage -->
<g id="node5" class="node"><title>basic usage</title>
<polygon fill="#ffffff" stroke="black" points="395.733,-715.463 275.733,-715.463 275.733,-679.463 395.733,-679.463 395.733,-715.463"/>
<text text-anchor="middle" x="335.733" y="-693.363" font-family="Times,serif" font-size="17.00" fill="#000000">basic usage</text>
</g>
<!-- basic usage&#45;&gt;haskell -->
<g id="edge4" class="edge"><title>basic usage&#45;&gt;haskell</title>
<path fill="none" stroke="green" d="M285.282,-679.445C255.488,-668.804 217.813,-655.349 187.612,-644.563"/>
<polygon fill="green" stroke="green" points="188.683,-641.228 178.088,-641.161 186.328,-647.821 188.683,-641.228"/>
</g>
<!-- basic usage&#45;&gt;horg -->
<g id="edge5" class="edge"><title>basic usage&#45;&gt;horg</title>
<path fill="none" stroke="green" d="M322.712,-679.302C309.375,-660.701 288.45,-631.517 272.89,-609.815"/>
<polygon fill="green" stroke="green" points="275.678,-607.698 267.007,-601.61 269.99,-611.777 275.678,-607.698"/>
</g>
<!-- basic usage&#45;&gt;program -->
<g id="edge6" class="edge"><title>basic usage&#45;&gt;program</title>
<path fill="none" stroke="green" d="M340.605,-679.369C341.538,-675.903 342.539,-672.184 343.547,-668.441"/>
<polygon fill="green" stroke="green" points="346.966,-669.203 346.186,-658.637 340.207,-667.384 346.966,-669.203"/>
</g>
<!-- output formats -->
<g id="node6" class="node"><title>output formats</title>
<polygon fill="#ffffff" stroke="black" points="194.409,-702.139 46.4086,-702.139 46.4086,-666.139 194.409,-666.139 194.409,-702.139"/>
<text text-anchor="middle" x="120.409" y="-680.039" font-family="Times,serif" font-size="17.00" fill="#000000">output formats</text>
</g>
<!-- output formats&#45;&gt;haskell -->
<g id="edge7" class="edge"><title>output formats&#45;&gt;haskell</title>
<path fill="none" stroke="green" d="M124.875,-665.966C125.594,-663.045 126.354,-659.95 127.122,-656.827"/>
<polygon fill="green" stroke="green" points="130.568,-657.471 129.556,-646.925 123.77,-655.8 130.568,-657.471"/>
</g>
<!-- output formats&#45;&gt;horg -->
<g id="edge8" class="edge"><title>output formats&#45;&gt;horg</title>
<path fill="none" stroke="green" d="M143.701,-665.978C165.15,-649.255 197.145,-624.309 220.874,-605.808"/>
<polygon fill="green" stroke="green" points="223.157,-608.466 228.891,-599.557 218.853,-602.946 223.157,-608.466"/>
</g>
<!-- output formats&#45;&gt;program -->
<g id="edge9" class="edge"><title>output formats&#45;&gt;program</title>
<path fill="none" stroke="green" d="M194.632,-669.079C222.437,-663.437 253.929,-657.048 281.394,-651.475"/>
<polygon fill="green" stroke="green" points="282.213,-654.88 291.317,-649.461 280.821,-648.02 282.213,-654.88"/>
</g>
<!-- filtering -->
<g id="node7" class="node"><title>filtering</title>
<polygon fill="#ffffff" stroke="black" points="287.736,-461.487 201.736,-461.487 201.736,-425.487 287.736,-425.487 287.736,-461.487"/>
<text text-anchor="middle" x="244.736" y="-439.387" font-family="Times,serif" font-size="17.00" fill="#000000">filtering</text>
</g>
<!-- filtering&#45;&gt;haskell -->
<g id="edge10" class="edge"><title>filtering&#45;&gt;haskell</title>
<path fill="none" stroke="green" d="M233.79,-461.624C214.78,-493.123 175.501,-558.209 152.54,-596.254"/>
<polygon fill="green" stroke="green" points="149.522,-594.482 147.352,-604.852 155.515,-598.099 149.522,-594.482"/>
</g>
<!-- filtering&#45;&gt;horg -->
<g id="edge11" class="edge"><title>filtering&#45;&gt;horg</title>
<path fill="none" stroke="green" d="M245.737,-461.495C246.976,-483.77 249.106,-522.083 250.624,-549.37"/>
<polygon fill="green" stroke="green" points="247.142,-549.8 251.192,-559.591 254.131,-549.412 247.142,-549.8"/>
</g>
<!-- filtering&#45;&gt;program -->
<g id="edge12" class="edge"><title>filtering&#45;&gt;program</title>
<path fill="none" stroke="green" d="M254.824,-461.707C273.302,-495.077 312.743,-566.31 335.275,-607.002"/>
<polygon fill="green" stroke="green" points="332.308,-608.87 340.214,-615.923 338.432,-605.479 332.308,-608.87"/>
</g>
<!-- basic filtering -->
<g id="node8" class="node"><title>basic filtering</title>
<polygon fill="#ffffff" stroke="black" points="136.934,-394.479 -0.0656713,-394.479 -0.0656713,-358.479 136.934,-358.479 136.934,-394.479"/>
<text text-anchor="middle" x="68.4343" y="-372.379" font-family="Times,serif" font-size="17.00" fill="#000000">basic filtering</text>
</g>
<!-- filtering&#45;&gt;basic filtering -->
<g id="edge13" class="edge"><title>filtering&#45;&gt;basic filtering</title>
<path fill="none" stroke="red" d="M201.608,-427.095C178.749,-418.407 150.369,-407.621 125.688,-398.24"/>
<polygon fill="red" stroke="red" points="126.668,-394.868 116.077,-394.587 124.181,-401.412 126.668,-394.868"/>
</g>
<!-- filter structure -->
<g id="node9" class="node"><title>filter structure</title>
<polygon fill="#ffffff" stroke="black" points="410.751,-253.092 264.751,-253.092 264.751,-217.092 410.751,-217.092 410.751,-253.092"/>
<text text-anchor="middle" x="337.751" y="-230.992" font-family="Times,serif" font-size="17.00" fill="#000000">filter structure</text>
</g>
<!-- filtering&#45;&gt;filter structure -->
<g id="edge14" class="edge"><title>filtering&#45;&gt;filter structure</title>
<path fill="none" stroke="red" d="M252.828,-425.358C269.148,-388.794 306.096,-306.013 325.432,-262.693"/>
<polygon fill="red" stroke="red" points="328.732,-263.886 329.612,-253.328 322.34,-261.033 328.732,-263.886"/>
</g>
<!-- conserve filter -->
<g id="node10" class="node"><title>conserve filter</title>
<polygon fill="#ffffff" stroke="black" points="416.862,-35.5627 273.862,-35.5627 273.862,0.437256 416.862,0.437256 416.862,-35.5627"/>
<text text-anchor="middle" x="345.362" y="-13.4627" font-family="Times,serif" font-size="17.00" fill="#000000">conserve filter</text>
</g>
<!-- filter structure&#45;&gt;conserve filter -->
<g id="edge15" class="edge"><title>filter structure&#45;&gt;conserve filter</title>
<path fill="none" stroke="red" d="M338.387,-216.92C339.713,-179.012 342.783,-91.2677 344.371,-45.8865"/>
<polygon fill="red" stroke="red" points="347.87,-45.9526 344.722,-35.8363 340.875,-45.7078 347.87,-45.9526"/>
</g>
<!-- preserve filter -->
<g id="node11" class="node"><title>preserve filter</title>
<polygon fill="#ffffff" stroke="black" points="562.461,-98.1063 420.461,-98.1063 420.461,-62.1063 562.461,-62.1063 562.461,-98.1063"/>
<text text-anchor="middle" x="491.461" y="-76.0063" font-family="Times,serif" font-size="17.00" fill="#000000">preserve filter</text>
</g>
<!-- filter structure&#45;&gt;preserve filter -->
<g id="edge16" class="edge"><title>filter structure&#45;&gt;preserve filter</title>
<path fill="none" stroke="red" d="M355.684,-217.01C382.958,-189.51 434.972,-137.064 466.104,-105.674"/>
<polygon fill="red" stroke="red" points="468.608,-108.119 473.165,-98.5537 463.638,-103.189 468.608,-108.119"/>
</g>
<!-- surface filter -->
<g id="node12" class="node"><title>surface filter</title>
<polygon fill="#ffffff" stroke="black" points="257.899,-93.9217 127.899,-93.9217 127.899,-57.9217 257.899,-57.9217 257.899,-93.9217"/>
<text text-anchor="middle" x="192.899" y="-71.8217" font-family="Times,serif" font-size="17.00" fill="#000000">surface filter</text>
</g>
<!-- filter structure&#45;&gt;surface filter -->
<g id="edge17" class="edge"><title>filter structure&#45;&gt;surface filter</title>
<path fill="none" stroke="red" d="M321.135,-216.834C295.376,-188.529 245.72,-133.964 216.33,-101.669"/>
<polygon fill="red" stroke="red" points="218.641,-99.0079 209.321,-93.9677 213.463,-103.719 218.641,-99.0079"/>
</g>
<!-- deep filter -->
<g id="node13" class="node"><title>deep filter</title>
<polygon fill="#ffffff" stroke="black" points="595.15,-248.963 488.15,-248.963 488.15,-212.963 595.15,-212.963 595.15,-248.963"/>
<text text-anchor="middle" x="541.65" y="-226.863" font-family="Times,serif" font-size="17.00" fill="#000000">deep filter</text>
</g>
<!-- filter structure&#45;&gt;deep filter -->
<g id="edge18" class="edge"><title>filter structure&#45;&gt;deep filter</title>
<path fill="none" stroke="red" d="M410.787,-233.613C432.686,-233.17 456.525,-232.687 477.784,-232.256"/>
<polygon fill="red" stroke="red" points="478.067,-235.751 487.994,-232.05 477.925,-228.753 478.067,-235.751"/>
</g>
</g>
</svg>
